<?xml version="1.0" standalone="no"?>
<!DOCTYPE svg PUBLIC "-//W3C//DTD SVG 20010904//EN"
 "http://www.w3.org/TR/2001/REC-SVG-20010904/DTD/svg10.dtd">
<svg version="1.0" xmlns="http://www.w3.org/2000/svg"
 width="512.000000pt" height="512.000000pt" viewBox="0 0 512.000000 512.000000"
 preserveAspectRatio="xMidYMid meet">
<metadata>
Created by potrace 1.14, written by Peter Selinger 2001-2017
</metadata>
<g transform="translate(0.000000,512.000000) scale(0.100000,-0.100000)"
fill="#000000" stroke="none">
<path d="M0 2560 l0 -2560 2560 0 2560 0 0 2560 0 2560 -2560 0 -2560 0 0
-2560z m3851 1540 c227 -201 419 -370 426 -375 13 -10 -50 -70 -319 -304 l-36
-32 -113 101 c-62 55 -117 100 -121 100 -4 0 -8 -247 -8 -550 l0 -550 -255 0
-255 0 0 550 c0 303 -3 550 -6 550 -5 0 -76 -61 -205 -178 l-27 -23 -182 162
c-176 156 -181 162 -163 179 83 81 838 740 844 738 4 -2 193 -167 420 -368z
m-1914 323 c120 -44 188 -88 288 -188 103 -102 158 -196 196 -331 32 -111 32
-277 0 -388 -29 -104 -89 -219 -151 -288 l-50 -56 66 -64 c144 -137 240 -321
258 -493 4 -33 9 -75 12 -92 l5 -33 -228 0 -228 0 -12 61 c-54 283 -363 427
-609 283 -97 -57 -176 -174 -191 -284 l-8 -55 -228 -3 -227 -2 0 38 c0 189
105 420 262 575 l68 67 -48 59 c-64 77 -104 148 -138 246 -26 74 -28 92 -29
230 0 131 3 159 23 219 90 267 275 447 534 516 60 17 98 19 213 17 126 -3 148
-7 222 -34z m-665 -2515 l3 -493 31 -65 c77 -163 216 -246 394 -238 176 8 314
111 369 276 20 59 21 83 21 537 l0 475 235 0 235 0 0 -442 c0 -244 -5 -483
-10 -533 -22 -189 -103 -364 -233 -502 -240 -254 -584 -341 -911 -232 -127 42
-226 101 -323 192 -130 123 -211 260 -255 430 -20 77 -21 112 -25 585 l-5 502
236 0 235 0 3 -492z m2397 482 c199 -21 332 -80 456 -205 134 -134 187 -271
188 -485 0 -138 -17 -211 -74 -329 -78 -159 -233 -280 -426 -333 -68 -18 -113
-22 -340 -26 l-263 -4 0 -184 0 -184 -245 0 -245 0 0 880 0 880 424 0 c233 0
469 -5 525 -10z"/>
<path d="M1622 4059 c-62 -12 -159 -67 -197 -112 -141 -165 -107 -420 73 -536
182 -116 428 -45 518 151 24 54 28 76 28 148 1 71 -4 94 -26 141 -49 107 -136
179 -247 205 -62 15 -86 16 -149 3z"/>
<path d="M3210 1700 l0 -312 188 4 c171 3 191 5 240 27 235 106 224 478 -16
567 -36 13 -89 18 -229 22 l-183 4 0 -312z"/>
</g>
</svg>
